<svg width="120" height="120" viewBox="0 0 120 120" xmlns="http://www.w3.org/2000/svg">
  <!-- Definiciones de gradientes -->
  <defs>
    <linearGradient id="bgGradient" x1="0%" y1="0%" x2="100%" y2="100%">
      <stop offset="0%" stop-color="#9747FF" />
      <stop offset="100%" stop-color="#B57AFF" />
    </linearGradient>
    <linearGradient id="medalGradient" x1="0%" y1="0%" x2="100%" y2="100%">
      <stop offset="0%" stop-color="#FFD700" />
      <stop offset="100%" stop-color="#FFC107" />
    </linearGradient>
  </defs>
  
  <!-- Fondo circular con gradiente -->
  <circle cx="60" cy="60" r="50" fill="url(#bgGradient)" opacity="0.1" />
  
  <!-- Certificado -->
  <g transform="translate(60, 60)">
    <!-- Marco del certificado -->
    <rect x="-35" y="-25" width="70" height="50" rx="3" fill="#9747FF" />
    <rect x="-32" y="-22" width="64" height="44" rx="2" fill="white" />
    
    <!-- Contenido del certificado -->
    <rect x="-25" y="-15" width="50" height="3" rx="1" fill="#9747FF" opacity="0.3" />
    <rect x="-25" y="-8" width="50" height="3" rx="1" fill="#9747FF" opacity="0.3" />
    <rect x="-25" y="-1" width="50" height="3" rx="1" fill="#9747FF" opacity="0.3" />
    <rect x="-25" y="6" width="30" height="3" rx="1" fill="#9747FF" opacity="0.3" />
    
    <!-- Sello/Medalla -->
    <circle cx="20" cy="0" r="12" fill="url(#medalGradient)" />
    <circle cx="20" cy="0" r="10" fill="url(#medalGradient)" stroke="white" stroke-width="1" />
    <polygon points="20,-7 22,-3 27,-2 23.5,1 24,6 20,3.5 16,6 16.5,1 13,-2 18,-3" fill="white" />
    
    <!-- Cinta decorativa -->
    <path d="M-35,15 L-40,25 L-30,25 Z" fill="#9747FF" />
    <path d="M35,15 L40,25 L30,25 Z" fill="#9747FF" />
  </g>
</svg>