<svg width="120" height="120" viewBox="0 0 120 120" xmlns="http://www.w3.org/2000/svg">
  <!-- Definiciones de gradientes -->
  <defs>
    <linearGradient id="bgGradient" x1="0%" y1="0%" x2="100%" y2="100%">
      <stop offset="0%" stop-color="#2ECC71" />
      <stop offset="100%" stop-color="#4CAF50" />
    </linearGradient>
  </defs>
  
  <!-- Fondo circular con gradiente -->
  <circle cx="60" cy="60" r="50" fill="url(#bgGradient)" opacity="0.1" />
  
  <!-- Pantalla interactiva -->
  <g transform="translate(60, 60)">
    <!-- Marco de la pantalla -->
    <rect x="-35" y="-25" width="70" height="50" rx="5" fill="#333333" />
    <rect x="-32" y="-22" width="64" height="44" rx="3" fill="#F5F5F5" />
    
    <!-- Elementos interactivos en la pantalla -->
    <rect x="-25" y="-15" width="20" height="15" rx="2" fill="#2ECC71" />
    <rect x="0" y="-15" width="20" height="15" rx="2" fill="#4CAF50" opacity="0.7" />
    
    <!-- Gráfico interactivo -->
    <rect x="-25" y="5" width="45" height="15" rx="2" fill="#EEEEEE" />
    <rect x="-22" y="8" width="10" height="9" rx="1" fill="#2ECC71" />
    <rect x="-10" y="5" width="10" height="12" rx="1" fill="#4CAF50" />
    <rect x="2" y="10" width="10" height="7" rx="1" fill="#2ECC71" />
    <rect x="14" y="3" width="10" height="14" rx="1" fill="#4CAF50" />
    
    <!-- Mano interactuando -->
    <g transform="translate(15, -5) rotate(45)">
      <path d="M0,0 L5,0 L5,15 L0,15 Z" fill="#FFC107" />
      <path d="M5,5 L10,5 L10,15 L5,15 Z" fill="#FFC107" />
      <path d="M10,8 L15,8 L15,15 L10,15 Z" fill="#FFC107" />
      <path d="M15,10 L20,10 L20,15 L15,15 Z" fill="#FFC107" />
      <path d="M0,15 L20,15 L15,20 L5,20 Z" fill="#FFC107" />
    </g>
    
    <!-- Elementos de interacción -->
    <circle cx="-20" cy="-7.5" r="2" fill="white" />
    <rect x="5" y="-10" width="10" height="2" rx="1" fill="white" />
    <rect x="5" y="-7" width="10" height="2" rx="1" fill="white" />
    
    <!-- Cursor -->
    <g transform="translate(-10, 10)">
      <path d="M0,0 L5,10 L0,8 L-5,10 Z" fill="#333333" />
    </g>
  </g>
  
  <!-- Elementos flotantes (representando interactividad) -->
  <g opacity="0.8">
    <!-- Botón 1 -->
    <g transform="translate(30, 30)">
      <circle cx="0" cy="0" r="8" fill="#2ECC71" />
      <path d="M-3,-3 L3,3 M-3,3 L3,-3" stroke="white" stroke-width="2" stroke-linecap="round" />
    </g>
    
    <!-- Botón 2 -->
    <g transform="translate(90, 30)">
      <circle cx="0" cy="0" r="8" fill="#4CAF50" />
      <path d="M-4,0 L4,0 M0,-4 L0,4" stroke="white" stroke-width="2" stroke-linecap="round" />
    </g>
    
    <!-- Botón 3 -->
    <g transform="translate(30, 90)">
      <circle cx="0" cy="0" r="8" fill="#2ECC71" />
      <path d="M-3,0 L3,0" stroke="white" stroke-width="2" stroke-linecap="round" />
    </g>
    
    <!-- Botón 4 -->
    <g transform="translate(90, 90)">
      <circle cx="0" cy="0" r="8" fill="#4CAF50" />
      <circle cx="0" cy="0" r="3" fill="white" />
    </g>
  </g>
</svg>