<svg xmlns="http://www.w3.org/2000/svg" width="500" height="300" viewBox="0 0 500 300">
  <defs>
    <linearGradient id="water-gradient" x1="0%" y1="0%" x2="0%" y2="100%">
      <stop offset="0%" stop-color="#ade8f4" stop-opacity="0.2" />
      <stop offset="100%" stop-color="#0077b6" stop-opacity="0.8" />
    </linearGradient>
    <linearGradient id="sand-gradient" x1="0%" y1="0%" x2="0%" y2="100%">
      <stop offset="0%" stop-color="#f8d49f" />
      <stop offset="100%" stop-color="#e6b980" />
    </linearGradient>
  </defs>
  
  <!-- Background -->
  <rect width="500" height="300" fill="url(#water-gradient)" />
  
  <!-- Sand at bottom -->
  <path d="M0,250 C50,240 100,260 150,250 C200,240 250,260 300,250 C350,240 400,260 450,250 C500,240 500,300 500,300 L0,300 Z" fill="url(#sand-gradient)" />
  
  <!-- Coral Reef -->
  <g transform="translate(50, 240)">
    <!-- Coral Structures -->
    <path d="M0,0 C5,-20 10,-30 15,-20 C20,-30 25,-40 30,-30 C35,-50 40,-60 45,-40 C50,-30 55,-50 60,-30 C65,-40 70,-20 75,-30 C80,-20 85,-10 90,0 Z" fill="#ff7f50" />
    <path d="M100,0 C105,-15 110,-25 115,-15 C120,-25 125,-35 130,-25 C135,-45 140,-55 145,-35 C150,-25 155,-45 160,-25 C165,-35 170,-15 175,-25 C180,-15 185,-5 190,0 Z" fill="#ff6b6b" />
    <path d="M200,0 C205,-25 210,-35 215,-25 C220,-35 225,-45 230,-35 C235,-55 240,-65 245,-45 C250,-35 255,-55 260,-35 C265,-45 270,-25 275,-35 C280,-25 285,-15 290,0 Z" fill="#ff7f50" />
    <path d="M300,0 C305,-20 310,-30 315,-20 C320,-30 325,-40 330,-30 C335,-50 340,-60 345,-40 C350,-30 355,-50 360,-30 C365,-40 370,-20 375,-30 C380,-20 385,-10 390,0 Z" fill="#ff6b6b" />
  </g>
  
  <!-- Seaweed -->
  <g>
    <path d="M30,250 C35,230 25,220 30,200 C35,180 45,170 40,150 C35,130 25,120 30,100" stroke="#2a9d8f" stroke-width="2" fill="none" />
    <path d="M35,250 C40,230 30,220 35,200 C40,180 50,170 45,150 C40,130 30,120 35,100" stroke="#2a9d8f" stroke-width="2" fill="none" />
    <path d="M40,250 C45,230 35,220 40,200 C45,180 55,170 50,150 C45,130 35,120 40,100" stroke="#2a9d8f" stroke-width="2" fill="none" />
    
    <path d="M350,250 C355,230 345,220 350,200 C355,180 365,170 360,150 C355,130 345,120 350,100" stroke="#2a9d8f" stroke-width="2" fill="none" />
    <path d="M355,250 C360,230 350,220 355,200 C360,180 370,170 365,150 C360,130 350,120 355,100" stroke="#2a9d8f" stroke-width="2" fill="none" />
    <path d="M360,250 C365,230 355,220 360,200 C365,180 375,170 370,150 C365,130 355,120 360,100" stroke="#2a9d8f" stroke-width="2" fill="none" />
  </g>
  
  <!-- Fish -->
  <g>
    <!-- Fish 1 -->
    <path d="M150,100 C160,90 180,90 190,100 C200,110 200,130 190,140 C180,150 160,150 150,140 C140,130 140,110 150,100 Z" fill="#f4a261" />
    <path d="M190,100 L210,90 L210,110 Z" fill="#f4a261" />
    <circle cx="160" cy="110" r="5" fill="#000000" />
    
    <!-- Fish 2 -->
    <path d="M250,150 C260,140 280,140 290,150 C300,160 300,180 290,190 C280,200 260,200 250,190 C240,180 240,160 250,150 Z" fill="#e9c46a" />
    <path d="M290,150 L310,140 L310,160 Z" fill="#e9c46a" />
    <circle cx="260" cy="160" r="5" fill="#000000" />
    
    <!-- Fish 3 -->
    <path d="M100,180 C110,170 130,170 140,180 C150,190 150,210 140,220 C130,230 110,230 100,220 C90,210 90,190 100,180 Z" fill="#e76f51" />
    <path d="M140,180 L160,170 L160,190 Z" fill="#e76f51" />
    <circle cx="110" cy="190" r="5" fill="#000000" />
  </g>
  
  <!-- Diver -->
  <g transform="translate(250, 120)">
    <!-- Body -->
    <path d="M0,0 C0,-10 10,-20 20,-20 C30,-20 40,-10 40,0 C40,10 30,20 20,20 C10,20 0,10 0,0 Z" fill="#000000" />
    
    <!-- Head -->
    <circle cx="20" cy="-30" r="15" fill="#ffddd2" />
    
    <!-- Mask -->
    <path d="M10,-35 C10,-40 30,-40 30,-35 C30,-30 10,-30 10,-35 Z" fill="#48cae4" />
    
    <!-- Oxygen Tank -->
    <rect x="10" y="-15" width="20" height="40" rx="5" fill="#adb5bd" />
    
    <!-- Arms -->
    <path d="M0,0 L-20,10" stroke="#000000" stroke-width="5" />
    <path d="M40,0 L60,10" stroke="#000000" stroke-width="5" />
    
    <!-- Legs -->
    <path d="M10,20 L0,50" stroke="#000000" stroke-width="5" />
    <path d="M30,20 L40,50" stroke="#000000" stroke-width="5" />
    
    <!-- Flippers -->
    <path d="M0,50 L-10,60 L0,65 L10,60 L0,50" fill="#48cae4" />
    <path d="M40,50 L30,60 L40,65 L50,60 L40,50" fill="#48cae4" />
    
    <!-- Bubbles -->
    <circle cx="25" cy="-40" r="3" fill="#ffffff" />
    <circle cx="30" cy="-50" r="4" fill="#ffffff" />
    <circle cx="25" cy="-60" r="2" fill="#ffffff" />
    <circle cx="30" cy="-70" r="5" fill="#ffffff" />
  </g>
  
  <!-- Small Bubbles scattered -->
  <g fill="#ffffff">
    <circle cx="100" cy="50" r="3" />
    <circle cx="120" cy="70" r="2" />
    <circle cx="140" cy="40" r="4" />
    <circle cx="300" cy="60" r="3" />
    <circle cx="320" cy="80" r="2" />
    <circle cx="340" cy="50" r="4" />
    <circle cx="360" cy="30" r="3" />
    <circle cx="380" cy="70" r="2" />
    <circle cx="400" cy="40" r="4" />
  </g>
  
  <!-- Light Rays -->
  <g opacity="0.2">
    <path d="M50,0 L30,100" stroke="#ffffff" stroke-width="5" />
    <path d="M150,0 L170,150" stroke="#ffffff" stroke-width="5" />
    <path d="M250,0 L230,120" stroke="#ffffff" stroke-width="5" />
    <path d="M350,0 L370,130" stroke="#ffffff" stroke-width="5" />
    <path d="M450,0 L430,110" stroke="#ffffff" stroke-width="5" />
  </g>
</svg>