<svg xmlns="http://www.w3.org/2000/svg" width="32" height="32" viewBox="0 0 32 32">
  <defs>
    <linearGradient id="favicon-gradient" x1="0%" y1="0%" x2="100%" y2="100%">
      <stop offset="0%" stop-color="#0077b6" />
      <stop offset="100%" stop-color="#00b4d8" />
    </linearGradient>
  </defs>
  <g fill="none" fill-rule="evenodd">
    <circle fill="url(#favicon-gradient)" cx="16" cy="16" r="16"/>
    <path fill="#ffffff" d="M16,8 C18.2091,8 20,9.79086 20,12 C20,14.2091 18.2091,16 16,16 C13.7909,16 12,14.2091 12,12 C12,9.79086 13.7909,8 16,8 Z M16,10 C14.8954,10 14,10.8954 14,12 C14,13.1046 14.8954,14 16,14 C17.1046,14 18,13.1046 18,12 C18,10.8954 17.1046,10 16,10 Z"/>
    <path fill="#ffffff" d="M16,16 C20.4183,16 24,19.5817 24,24 L8,24 C8,19.5817 11.5817,16 16,16 Z"/>
    <path fill="#ffffff" d="M7,12 C7,12 8,11 9,11 C10,11 11,12 11,12 L11,14 C11,14 10,15 9,15 C8,15 7,14 7,14 L7,12 Z"/>
    <path fill="#ffffff" d="M25,12 C25,12 24,11 23,11 C22,11 21,12 21,12 L21,14 C21,14 22,15 23,15 C24,15 25,14 25,14 L25,12 Z"/>
  </g>
</svg>