<svg xmlns="http://www.w3.org/2000/svg" width="200" height="60" viewBox="0 0 200 60">
  <defs>
    <linearGradient id="logo-gradient" x1="0%" y1="0%" x2="100%" y2="100%">
      <stop offset="0%" stop-color="#0077b6" />
      <stop offset="100%" stop-color="#00b4d8" />
    </linearGradient>
  </defs>
  <g fill="none" fill-rule="evenodd">
    <path fill="url(#logo-gradient)" d="M40,10 C51.0457,10 60,18.9543 60,30 C60,41.0457 51.0457,50 40,50 C28.9543,50 20,41.0457 20,30 C20,18.9543 28.9543,10 40,10 Z M40,15 C31.7157,15 25,21.7157 25,30 C25,38.2843 31.7157,45 40,45 C48.2843,45 55,38.2843 55,30 C55,21.7157 48.2843,15 40,15 Z"/>
    <path fill="#03045e" d="M40,20 C45.5228,20 50,24.4772 50,30 C50,35.5228 45.5228,40 40,40 C34.4772,40 30,35.5228 30,30 C30,24.4772 34.4772,20 40,20 Z M40,25 C37.2386,25 35,27.2386 35,30 C35,32.7614 37.2386,35 40,35 C42.7614,35 45,32.7614 45,30 C45,27.2386 42.7614,25 40,25 Z"/>
    <path fill="#03045e" d="M38,10 L42,10 L42,15 L38,15 L38,10 Z M38,45 L42,45 L42,50 L38,50 L38,45 Z M20,28 L25,28 L25,32 L20,32 L20,28 Z M55,28 L60,28 L60,32 L55,32 L55,28 Z"/>
    <path fill="#03045e" d="M35,17.9289 L38.5355,14.3934 L41.364,17.2218 L37.8284,20.7574 L35,17.9289 Z M37.8284,39.2426 L41.364,42.7782 L38.5355,45.6066 L35,42.0711 L37.8284,39.2426 Z M22.9289,35 L26.4645,38.5355 L23.636,41.364 L20.1005,37.8284 L22.9289,35 Z M56.364,18.636 L59.8995,22.1716 L57.0711,25 L53.5355,21.4645 L56.364,18.636 Z"/>
    <path fill="#03045e" d="M27.9289,22.9289 L31.4645,19.3934 L34.2929,22.2218 L30.7574,25.7574 L27.9289,22.9289 Z M30.7574,34.2426 L34.2929,37.7782 L31.4645,40.6066 L27.9289,37.0711 L30.7574,34.2426 Z M45.7071,22.2218 L48.5355,19.3934 L52.0711,22.9289 L49.2426,25.7574 L45.7071,22.2218 Z M49.2426,34.2426 L52.0711,37.0711 L48.5355,40.6066 L45.7071,37.7782 L49.2426,34.2426 Z"/>
    <path fill="#03045e" d="M40,5 C40,5 45,0 50,0 C55,0 60,5 60,5 L40,5 Z"/>
    <path fill="#03045e" d="M40,55 C40,55 45,60 50,60 C55,60 60,55 60,55 L40,55 Z"/>
    <path fill="#03045e" d="M5,40 C5,40 0,45 0,50 C0,55 5,60 5,60 L5,40 Z"/>
    <path fill="#03045e" d="M5,20 C5,20 0,15 0,10 C0,5 5,0 5,0 L5,20 Z"/>
    <text font-family="Arial, sans-serif" font-size="18" font-weight="bold" fill="#03045e">
      <tspan x="70" y="35">BUCEO REACT</tspan>
    </text>
  </g>
</svg>