<svg xmlns="http://www.w3.org/2000/svg" width="1200" height="600" viewBox="0 0 1200 600">
  <!-- Definiciones de gradientes y filtros -->
  <defs>
    <linearGradient id="bgGradient" x1="0%" y1="0%" x2="100%" y2="100%">
      <stop offset="0%" style="stop-color:#2c3e50;stop-opacity:1" />
      <stop offset="100%" style="stop-color:#1a2530;stop-opacity:1" />
    </linearGradient>
    
    <linearGradient id="cardGradient" x1="0%" y1="0%" x2="100%" y2="100%">
      <stop offset="0%" style="stop-color:#3498db;stop-opacity:0.8" />
      <stop offset="100%" style="stop-color:#2980b9;stop-opacity:0.9" />
    </linearGradient>
    
    <filter id="glow" x="-20%" y="-20%" width="140%" height="140%">
      <feGaussianBlur stdDeviation="5" result="blur" />
      <feComposite in="SourceGraphic" in2="blur" operator="over" />
    </filter>
    
    <pattern id="grid" width="50" height="50" patternUnits="userSpaceOnUse">
      <path d="M 50 0 L 0 0 0 50" fill="none" stroke="rgba(255, 255, 255, 0.05)" stroke-width="1"/>
    </pattern>
  </defs>
  
  <!-- Fondo principal -->
  <rect width="1200" height="600" fill="url(#bgGradient)" />
  <rect width="1200" height="600" fill="url(#grid)" />
  
  <!-- Elementos decorativos - Líneas de conexión -->
  <g stroke="rgba(52, 152, 219, 0.3)" stroke-width="2" fill="none">
    <path d="M 100,100 C 300,50 500,150 700,100 S 900,50 1100,100" />
    <path d="M 100,200 C 300,150 500,250 700,200 S 900,150 1100,200" />
    <path d="M 100,300 C 300,250 500,350 700,300 S 900,250 1100,300" />
    <path d="M 100,400 C 300,350 500,450 700,400 S 900,350 1100,400" />
    <path d="M 100,500 C 300,450 500,550 700,500 S 900,450 1100,500" />
  </g>
  
  <!-- Nodos de conexión -->
  <g fill="#3498db">
    <circle cx="100" cy="100" r="5" />
    <circle cx="700" cy="100" r="5" />
    <circle cx="1100" cy="100" r="5" />
    <circle cx="100" cy="200" r="5" />
    <circle cx="700" cy="200" r="5" />
    <circle cx="1100" cy="200" r="5" />
    <circle cx="100" cy="300" r="5" />
    <circle cx="700" cy="300" r="5" />
    <circle cx="1100" cy="300" r="5" />
    <circle cx="100" cy="400" r="5" />
    <circle cx="700" cy="400" r="5" />
    <circle cx="1100" cy="400" r="5" />
    <circle cx="100" cy="500" r="5" />
    <circle cx="700" cy="500" r="5" />
    <circle cx="1100" cy="500" r="5" />
  </g>
  
  <!-- Elementos principales -->
  <g filter="url(#glow)">
    <!-- Servidor central -->
    <rect x="500" y="200" width="200" height="250" rx="10" ry="10" fill="#ecf0f1" stroke="#bdc3c7" stroke-width="2" />
    <rect x="520" y="220" width="160" height="20" rx="5" ry="5" fill="#95a5a6" />
    <rect x="520" y="250" width="160" height="20" rx="5" ry="5" fill="#95a5a6" />
    <rect x="520" y="280" width="160" height="20" rx="5" ry="5" fill="#95a5a6" />
    <rect x="520" y="310" width="100" height="20" rx="5" ry="5" fill="#95a5a6" />
    
    <!-- Luces del servidor -->
    <circle cx="540" cy="370" r="8" fill="#e74c3c" />
    <circle cx="570" cy="370" r="8" fill="#f1c40f" />
    <circle cx="600" cy="370" r="8" fill="#2ecc71" />
    
    <!-- Endpoints flotantes -->
    <g transform="translate(250, 150)">
      <rect x="0" y="0" width="120" height="60" rx="10" ry="10" fill="url(#cardGradient)" />
      <text x="60" y="25" font-family="Courier New, monospace" font-size="14" text-anchor="middle" fill="white">GET /users</text>
      <text x="60" y="45" font-family="Courier New, monospace" font-size="12" text-anchor="middle" fill="white">200 OK</text>
      <path d="M 120,30 L 250,250" stroke="#3498db" stroke-width="2" stroke-dasharray="5,5" />
    </g>
    
    <g transform="translate(830, 180)">
      <rect x="0" y="0" width="120" height="60" rx="10" ry="10" fill="url(#cardGradient)" />
      <text x="60" y="25" font-family="Courier New, monospace" font-size="14" text-anchor="middle" fill="white">POST /data</text>
      <text x="60" y="45" font-family="Courier New, monospace" font-size="12" text-anchor="middle" fill="white">201 Created</text>
      <path d="M 0,30 L -130,250" stroke="#3498db" stroke-width="2" stroke-dasharray="5,5" />
    </g>
    
    <g transform="translate(250, 350)">
      <rect x="0" y="0" width="120" height="60" rx="10" ry="10" fill="url(#cardGradient)" />
      <text x="60" y="25" font-family="Courier New, monospace" font-size="14" text-anchor="middle" fill="white">PUT /update</text>
      <text x="60" y="45" font-family="Courier New, monospace" font-size="12" text-anchor="middle" fill="white">204 No Content</text>
      <path d="M 120,30 L 250,300" stroke="#3498db" stroke-width="2" stroke-dasharray="5,5" />
    </g>
    
    <g transform="translate(830, 350)">
      <rect x="0" y="0" width="120" height="60" rx="10" ry="10" fill="url(#cardGradient)" />
      <text x="60" y="25" font-family="Courier New, monospace" font-size="14" text-anchor="middle" fill="white">DELETE /item</text>
      <text x="60" y="45" font-family="Courier New, monospace" font-size="12" text-anchor="middle" fill="white">200 OK</text>
      <path d="M 0,30 L -130,300" stroke="#3498db" stroke-width="2" stroke-dasharray="5,5" />
    </g>
    
    <!-- Documentos JSON flotantes -->
    <g transform="translate(150, 250)">
      <rect x="0" y="0" width="80" height="100" rx="5" ry="5" fill="#f1c40f" stroke="#f39c12" stroke-width="2" />
      <text x="40" y="30" font-family="Courier New, monospace" font-size="16" text-anchor="middle" fill="#2c3e50" font-weight="bold">{ }</text>
      <line x1="10" y1="50" x2="70" y2="50" stroke="#2c3e50" stroke-width="2" />
      <line x1="10" y1="70" x2="50" y2="70" stroke="#2c3e50" stroke-width="2" />
      <line x1="10" y1="90" x2="60" y2="90" stroke="#2c3e50" stroke-width="2" />
    </g>
    
    <g transform="translate(970, 250)">
      <rect x="0" y="0" width="80" height="100" rx="5" ry="5" fill="#f1c40f" stroke="#f39c12" stroke-width="2" />
      <text x="40" y="30" font-family="Courier New, monospace" font-size="16" text-anchor="middle" fill="#2c3e50" font-weight="bold">{ }</text>
      <line x1="10" y1="50" x2="70" y2="50" stroke="#2c3e50" stroke-width="2" />
      <line x1="10" y1="70" x2="50" y2="70" stroke="#2c3e50" stroke-width="2" />
      <line x1="10" y1="90" x2="60" y2="90" stroke="#2c3e50" stroke-width="2" />
    </g>
  </g>
  
  <!-- Título principal -->
  <text x="600" y="100" font-family="Arial, sans-serif" font-size="40" text-anchor="middle" fill="white" font-weight="bold">API RESTful</text>
  <text x="600" y="140" font-family="Arial, sans-serif" font-size="20" text-anchor="middle" fill="#3498db">Diseño e Implementación</text>
</svg>