<svg xmlns="http://www.w3.org/2000/svg" width="800" height="600" viewBox="0 0 800 600">
  <defs>
    <linearGradient id="bg-gradient" x1="0%" y1="0%" x2="100%" y2="100%">
      <stop offset="0%" stop-color="#f5f7fa" />
      <stop offset="100%" stop-color="#e4e8f0" />
    </linearGradient>
    <linearGradient id="chart-gradient" x1="0%" y1="100%" x2="0%" y2="0%">
      <stop offset="0%" stop-color="#4285F4" />
      <stop offset="100%" stop-color="#34A853" />
    </linearGradient>
    <linearGradient id="pie-gradient-1" x1="0%" y1="0%" x2="100%" y2="100%">
      <stop offset="0%" stop-color="#4285F4" />
      <stop offset="100%" stop-color="#5E97F6" />
    </linearGradient>
    <linearGradient id="pie-gradient-2" x1="0%" y1="0%" x2="100%" y2="100%">
      <stop offset="0%" stop-color="#34A853" />
      <stop offset="100%" stop-color="#5CB85C" />
    </linearGradient>
    <linearGradient id="pie-gradient-3" x1="0%" y1="0%" x2="100%" y2="100%">
      <stop offset="0%" stop-color="#FBBC05" />
      <stop offset="100%" stop-color="#F1C40F" />
    </linearGradient>
  </defs>
  
  <!-- Background -->
  <rect width="800" height="600" fill="url(#bg-gradient)" />
  
  <!-- Dashboard Container -->
  <rect x="50" y="50" width="700" height="500" rx="10" fill="white" stroke="#e0e0e0" stroke-width="2" />
  
  <!-- Header -->
  <rect x="50" y="50" width="700" height="60" rx="10" fill="#4285F4" />
  <circle cx="100" cy="80" r="15" fill="white" />
  <rect x="130" y="70" width="120" height="20" rx="5" fill="white" opacity="0.8" />
  <rect x="600" y="70" width="100" height="20" rx="5" fill="white" opacity="0.5" />
  
  <!-- Sidebar -->
  <rect x="50" y="110" width="150" height="440" fill="#f8f9fa" />
  <rect x="70" y="140" width="110" height="10" rx="5" fill="#4285F4" opacity="0.7" />
  <rect x="70" y="170" width="110" height="10" rx="5" fill="#e0e0e0" />
  <rect x="70" y="200" width="110" height="10" rx="5" fill="#e0e0e0" />
  <rect x="70" y="230" width="110" height="10" rx="5" fill="#e0e0e0" />
  <rect x="70" y="260" width="110" height="10" rx="5" fill="#e0e0e0" />
  
  <!-- Main Content -->
  <!-- KPI Cards -->
  <rect x="220" y="130" width="150" height="100" rx="5" fill="white" stroke="#e0e0e0" stroke-width="1" />
  <rect x="230" y="145" width="80" height="10" rx="5" fill="#e0e0e0" />
  <rect x="230" y="165" width="130" height="20" rx="5" fill="#4285F4" opacity="0.2" />
  <rect x="230" y="195" width="60" height="10" rx="5" fill="#4285F4" opacity="0.5" />
  
  <rect x="390" y="130" width="150" height="100" rx="5" fill="white" stroke="#e0e0e0" stroke-width="1" />
  <rect x="400" y="145" width="80" height="10" rx="5" fill="#e0e0e0" />
  <rect x="400" y="165" width="130" height="20" rx="5" fill="#34A853" opacity="0.2" />
  <rect x="400" y="195" width="60" height="10" rx="5" fill="#34A853" opacity="0.5" />
  
  <rect x="560" y="130" width="150" height="100" rx="5" fill="white" stroke="#e0e0e0" stroke-width="1" />
  <rect x="570" y="145" width="80" height="10" rx="5" fill="#e0e0e0" />
  <rect x="570" y="165" width="130" height="20" rx="5" fill="#FBBC05" opacity="0.2" />
  <rect x="570" y="195" width="60" height="10" rx="5" fill="#FBBC05" opacity="0.5" />
  
  <!-- Line Chart -->
  <rect x="220" y="250" width="320" height="200" rx="5" fill="white" stroke="#e0e0e0" stroke-width="1" />
  <rect x="230" y="265" width="100" height="10" rx="5" fill="#e0e0e0" />
  <polyline points="250,400 290,350 330,380 370,320 410,340 450,300 490,280" stroke="#4285F4" stroke-width="3" fill="none" />
  <rect x="250" y="400" width="240" height="30" rx="0" fill="url(#chart-gradient)" opacity="0.2" />
  
  <!-- Pie Chart -->
  <rect x="560" y="250" width="150" height="200" rx="5" fill="white" stroke="#e0e0e0" stroke-width="1" />
  <rect x="570" y="265" width="100" height="10" rx="5" fill="#e0e0e0" />
  <path d="M635,350 L635,310 A40,40 0 0,1 670,350 Z" fill="url(#pie-gradient-1)" />
  <path d="M635,350 L670,350 A40,40 0 0,1 635,390 Z" fill="url(#pie-gradient-2)" />
  <path d="M635,350 L635,390 A40,40 0 0,1 600,350 Z" fill="url(#pie-gradient-3)" />
  <path d="M635,350 L600,350 A40,40 0 0,1 635,310 Z" fill="#EA4335" />
  
  <!-- Table -->
  <rect x="220" y="470" width="490" height="80" rx="5" fill="white" stroke="#e0e0e0" stroke-width="1" />
  <rect x="230" y="485" width="470" height="1" fill="#e0e0e0" />
  <rect x="230" y="505" width="470" height="1" fill="#e0e0e0" />
  <rect x="230" y="525" width="470" height="1" fill="#e0e0e0" />
  <rect x="230" y="545" width="470" height="1" fill="#e0e0e0" />
</svg>