<svg xmlns="http://www.w3.org/2000/svg" viewBox="0 0 800 600" width="800" height="600">
  <!-- Fondo -->
  <rect width="800" height="600" fill="#f1f5f9"/>
  
  <!-- Representación de una aplicación web -->
  <g transform="translate(100, 50)">
    <!-- Navegador -->
    <rect x="0" y="0" width="600" height="400" rx="10" ry="10" fill="white" stroke="#cbd5e1" stroke-width="2"/>
    
    <!-- Barra de navegación del navegador -->
    <rect x="0" y="0" width="600" height="40" rx="10" ry="10" fill="#f8fafc" stroke="#cbd5e1" stroke-width="2"/>
    
    <!-- Botones del navegador -->
    <circle cx="20" cy="20" r="7" fill="#ef4444"/>
    <circle cx="45" cy="20" r="7" fill="#f97316"/>
    <circle cx="70" cy="20" r="7" fill="#10b981"/>
    
    <!-- Barra de URL -->
    <rect x="100" y="10" width="400" height="20" rx="5" ry="5" fill="#e2e8f0"/>
    
    <!-- Contenido de la página web -->
    <g transform="translate(20, 60)">
      <!-- Encabezado -->
      <rect x="0" y="0" width="560" height="60" rx="5" ry="5" fill="#2563eb" opacity="0.8"/>
      <rect x="20" y="20" width="120" height="20" rx="3" ry="3" fill="white" opacity="0.7"/>
      <rect x="400" y="20" width="60" height="20" rx="3" ry="3" fill="white" opacity="0.7"/>
      <rect x="480" y="20" width="60" height="20" rx="3" ry="3" fill="white" opacity="0.7"/>
      
      <!-- Contenido principal -->
      <rect x="0" y="80" width="360" height="240" rx="5" ry="5" fill="white" stroke="#e2e8f0" stroke-width="2"/>
      <rect x="20" y="100" width="320" height="30" rx="3" ry="3" fill="#f1f5f9"/>
      <rect x="20" y="150" width="320" height="150" rx="3" ry="3" fill="#f1f5f9"/>
      
      <!-- Barra lateral -->
      <rect x="380" y="80" width="180" height="240" rx="5" ry="5" fill="white" stroke="#e2e8f0" stroke-width="2"/>
      <rect x="400" y="100" width="140" height="20" rx="3" ry="3" fill="#f1f5f9"/>
      <rect x="400" y="130" width="140" height="20" rx="3" ry="3" fill="#f1f5f9"/>
      <rect x="400" y="160" width="140" height="20" rx="3" ry="3" fill="#f1f5f9"/>
      <rect x="400" y="190" width="140" height="20" rx="3" ry="3" fill="#f1f5f9"/>
      <rect x="400" y="220" width="140" height="80" rx="3" ry="3" fill="#f1f5f9"/>
    </g>
  </g>
  
  <!-- Elementos de código JavaScript -->
  <g transform="translate(150, 480)" font-family="monospace" font-size="14" fill="#334155">
    <text x="0" y="0">const app = document.querySelector('#app');</text>
    <text x="0" y="25">app.addEventListener('click', () => {</text>
    <text x="20" y="50">console.log('Hello World!');</text>
    <text x="0" y="75">});</text>
  </g>
  
  <!-- Iconos de tecnologías -->
  <g transform="translate(600, 480)">
    <!-- HTML5 -->
    <path d="M20,0 L0,0 L2,22 L10,25 L18,22 L20,0 Z" fill="#e34f26"/>
    <path d="M10,4 L10,21 L16,19 L17,4 Z" fill="white"/>
    
    <!-- CSS3 -->
    <path d="M50,0 L30,0 L32,22 L40,25 L48,22 L50,0 Z" transform="translate(30, 0)" fill="#1572b6"/>
    <path d="M40,4 L40,21 L46,19 L47,4 Z" transform="translate(30, 0)" fill="white"/>
    
    <!-- JS -->
    <rect x="90" y="0" width="20" height="25" fill="#f7df1e"/>
    <path d="M95,18 C95,20 96,21 98,21 C100,21 101,20 101,18 C101,16 100,15 98,15 C96,15 95,16 95,18 Z M105,18 C105,20 106,21 108,21 C110,21 111,20 111,18 C111,16 110,15 108,15 C106,15 105,16 105,18 Z" fill="#333"/>
  </g>
</svg>