<svg xmlns="http://www.w3.org/2000/svg" viewBox="0 0 200 200" width="200" height="200">
  <!-- Logo de Java estilizado -->
  <g transform="translate(50, 20) scale(0.8)">
    <!-- Taza de café -->
    <path d="M107.6,168.2c0,0,14.8,12.2-13.9,22.1c-34.4,11.9-7.9,18.7,0,26.4c-20.2-18.3,34.9-26.4,35.8-39.7 C130.4,163.7,107.6,168.2,107.6,168.2z" fill="#5a68a5"/>
    <path d="M102.5,142.9c0,0-16.5,9.7,13.9,13.1c36.9,4.1,56.8,4.5,56.8,4.5s-6.3,2.7-14.3,5.1c-57.8,15.3-134.5-0.9-109-8.1 C75.2,149.9,102.5,142.9,102.5,142.9z" fill="#5a68a5"/>
    <path d="M153.9,113.9c10.4,12-2.7,22.8-2.7,22.8s26.4-13.6,14.3-30.7c-11.3-15.9-20-23.8,27-51.1 C192.5,54.9,120.5,71.4,153.9,113.9z" fill="#f89406"/>
    <path d="M107.6,0c0,0,14.8,14.8-14,37.4c-23,18.1-5.2,28.4,0,40.2c-13.4-12.1-23.2-22.7-16.6-32.6C86.5,30.7,116.4,23.7,107.6,0 z" fill="#f89406"/>
    <path d="M104.9,205.6c0,0,11,9-12.1,15.9c-44,13.1-91.3,12.5-110.5,0.4c-6.9-4.3,12.1-10.3,20.2-11.6c8.5-1.3,13.3-1.1,13.3-1.1 s-15.3-10.8-52.2,5.8C-69.2,241.4,140.7,222.7,104.9,205.6z" fill="#5a68a5"/>
    <path d="M106.7,177.7c-52.2-13.9-20.2-27.3-8.1-25.5c3.6,0.5,5.2,1.1,5.2,1.1s-1.3-2-9.4-3.6c-69.7-15.5,11.9,44,115.7,23.7 C210.1,173.4,143.6,187.4,106.7,177.7z" fill="#5a68a5"/>
  </g>
</svg>