<svg xmlns="http://www.w3.org/2000/svg" viewBox="0 0 800 500" width="800" height="500">
  <!-- Dashboard de Inventario -->
  <rect width="800" height="500" fill="#f5f5f5"/>
  
  <!-- Header -->
  <rect width="800" height="60" fill="#3a75c4"/>
  <text x="20" y="38" font-family="Arial" font-size="20" fill="white">Java Inventory Manager - Dashboard</text>
  
  <!-- Sidebar -->
  <rect x="0" y="60" width="200" height="440" fill="#2c3e50"/>
  
  <!-- Sidebar Menu Items -->
  <rect x="0" y="100" width="200" height="40" fill="#34495e"/>
  <text x="20" y="125" font-family="Arial" font-size="14" fill="white">Dashboard</text>
  
  <rect x="0" y="140" width="200" height="40" fill="#2c3e50"/>
  <text x="20" y="165" font-family="Arial" font-size="14" fill="white">Productos</text>
  
  <rect x="0" y="180" width="200" height="40" fill="#2c3e50"/>
  <text x="20" y="205" font-family="Arial" font-size="14" fill="white">Proveedores</text>
  
  <rect x="0" y="220" width="200" height="40" fill="#2c3e50"/>
  <text x="20" y="245" font-family="Arial" font-size="14" fill="white">Ventas</text>
  
  <rect x="0" y="260" width="200" height="40" fill="#2c3e50"/>
  <text x="20" y="285" font-family="Arial" font-size="14" fill="white">Informes</text>
  
  <rect x="0" y="300" width="200" height="40" fill="#2c3e50"/>
  <text x="20" y="325" font-family="Arial" font-size="14" fill="white">Configuración</text>
  
  <!-- Main Content -->
  <!-- Stats Cards -->
  <rect x="220" y="80" width="170" height="100" rx="5" fill="white" stroke="#ddd"/>
  <text x="240" y="110" font-family="Arial" font-size="14" fill="#555">Total Productos</text>
  <text x="240" y="150" font-family="Arial" font-size="24" font-weight="bold" fill="#3a75c4">1,245</text>
  
  <rect x="410" y="80" width="170" height="100" rx="5" fill="white" stroke="#ddd"/>
  <text x="430" y="110" font-family="Arial" font-size="14" fill="#555">Ventas Mensuales</text>
  <text x="430" y="150" font-family="Arial" font-size="24" font-weight="bold" fill="#27ae60">€24,500</text>
  
  <rect x="600" y="80" width="170" height="100" rx="5" fill="white" stroke="#ddd"/>
  <text x="620" y="110" font-family="Arial" font-size="14" fill="#555">Alertas Stock</text>
  <text x="620" y="150" font-family="Arial" font-size="24" font-weight="bold" fill="#e74c3c">12</text>
  
  <!-- Charts -->
  <rect x="220" y="200" width="350" height="250" rx="5" fill="white" stroke="#ddd"/>
  <text x="240" y="230" font-family="Arial" font-size="16" font-weight="bold" fill="#333">Ventas por Categoría</text>
  
  <!-- Bar Chart -->
  <rect x="240" y="250" width="40" height="180" fill="#3498db"/>
  <rect x="290" y="280" width="40" height="150" fill="#3498db"/>
  <rect x="340" y="300" width="40" height="130" fill="#3498db"/>
  <rect x="390" y="330" width="40" height="100" fill="#3498db"/>
  <rect x="440" y="350" width="40" height="80" fill="#3498db"/>
  
  <text x="240" y="445" font-family="Arial" font-size="10" fill="#555">Electrónica</text>
  <text x="290" y="445" font-family="Arial" font-size="10" fill="#555">Ropa</text>
  <text x="340" y="445" font-family="Arial" font-size="10" fill="#555">Hogar</text>
  <text x="390" y="445" font-family="Arial" font-size="10" fill="#555">Alimentos</text>
  <text x="440" y="445" font-family="Arial" font-size="10" fill="#555">Otros</text>
  
  <!-- Recent Activity -->
  <rect x="590" y="200" width="180" height="250" rx="5" fill="white" stroke="#ddd"/>
  <text x="610" y="230" font-family="Arial" font-size="16" font-weight="bold" fill="#333">Actividad Reciente</text>
  
  <text x="610" y="260" font-family="Arial" font-size="12" fill="#555">• Nuevo producto añadido</text>
  <text x="610" y="280" font-family="Arial" font-size="12" fill="#555">• Venta completada #1234</text>
  <text x="610" y="300" font-family="Arial" font-size="12" fill="#555">• Stock actualizado</text>
  <text x="610" y="320" font-family="Arial" font-size="12" fill="#555">• Nuevo proveedor</text>
  <text x="610" y="340" font-family="Arial" font-size="12" fill="#555">• Alerta de stock bajo</text>
</svg>