<svg xmlns="http://www.w3.org/2000/svg" viewBox="0 0 800 500" width="800" height="500">
  <!-- Aplicación Móvil -->
  <rect width="800" height="500" fill="#f5f5f5"/>
  
  <!-- Smartphone Frame -->
  <rect x="250" y="50" width="300" height="400" rx="20" fill="#333"/>
  <rect x="260" y="70" width="280" height="360" rx="5" fill="white"/>
  
  <!-- App Header -->
  <rect x="260" y="70" width="280" height="50" rx="5" fill="#3a75c4"/>
  <text x="280" y="100" font-family="Arial" font-size="16" fill="white">Java Inventory App</text>
  <circle cx="520" cy="95" r="10" fill="white" fill-opacity="0.5"/>
  
  <!-- Navigation Tabs -->
  <rect x="260" y="120" width="280" height="40" fill="#f0f0f0"/>
  <rect x="260" y="120" width="70" height="40" fill="#e0e0e0"/>
  <text x="280" y="145" font-family="Arial" font-size="12" fill="#3a75c4">Inicio</text>
  
  <text x="350" y="145" font-family="Arial" font-size="12" fill="#555">Productos</text>
  <text x="430" y="145" font-family="Arial" font-size="12" fill="#555">Escanear</text>
  <text x="500" y="145" font-family="Arial" font-size="12" fill="#555">Más</text>
  
  <!-- Dashboard Stats -->
  <rect x="270" y="170" width="260" height="80" rx="5" fill="#f9f9f9" stroke="#ddd"/>
  <text x="290" y="190" font-family="Arial" font-size="12" fill="#555">Resumen de Inventario</text>
  
  <rect x="280" y="200" width="110" height="40" rx="3" fill="white" stroke="#ddd"/>
  <text x="290" y="220" font-family="Arial" font-size="10" fill="#555">Total Productos</text>
  <text x="290" y="235" font-family="Arial" font-size="14" font-weight="bold" fill="#3a75c4">1,245</text>
  
  <rect x="410" y="200" width="110" height="40" rx="3" fill="white" stroke="#ddd"/>
  <text x="420" y="220" font-family="Arial" font-size="10" fill="#555">Alertas Stock</text>
  <text x="420" y="235" font-family="Arial" font-size="14" font-weight="bold" fill="#e74c3c">12</text>
  
  <!-- Recent Activity -->
  <rect x="270" y="260" width="260" height="160" rx="5" fill="#f9f9f9" stroke="#ddd"/>
  <text x="290" y="280" font-family="Arial" font-size="12" fill="#555">Actividad Reciente</text>
  
  <!-- Activity Items -->
  <rect x="280" y="290" width="240" height="40" rx="3" fill="white" stroke="#eee"/>
  <circle cx="300" cy="310" r="10" fill="#3498db"/>
  <text x="320" y="305" font-family="Arial" font-size="10" fill="#333">Laptop HP Pavilion</text>
  <text x="320" y="320" font-family="Arial" font-size="8" fill="#777">Stock actualizado • Hace 5 min</text>
  
  <rect x="280" y="340" width="240" height="40" rx="3" fill="white" stroke="#eee"/>
  <circle cx="300" cy="360" r="10" fill="#e74c3c"/>
  <text x="320" y="355" font-family="Arial" font-size="10" fill="#333">Disco SSD 500GB</text>
  <text x="320" y="370" font-family="Arial" font-size="8" fill="#777">Alerta stock bajo • Hace 20 min</text>
  
  <rect x="280" y="390" width="240" height="40" rx="3" fill="white" stroke="#eee"/>
  <circle cx="300" cy="410" r="10" fill="#2ecc71"/>
  <text x="320" y="405" font-family="Arial" font-size="10" fill="#333">Monitor LG 27"</text>
  <text x="320" y="420" font-family="Arial" font-size="8" fill="#777">Venta completada • Hace 45 min</text>
  
  <!-- Bottom Navigation -->
  <rect x="260" y="430" width="280" height="50" fill="#f0f0f0"/>
  
  <circle cx="300" cy="455" r="15" fill="#3a75c4"/>
  <text x="300" y="459" font-family="Arial" font-size="14" fill="white" text-anchor="middle">+</text>
  
  <circle cx="350" cy="455" r="15" fill="white" stroke="#ddd"/>
  <text x="350" y="459" font-family="Arial" font-size="14" fill="#555" text-anchor="middle">⚙</text>
  
  <circle cx="400" cy="455" r="15" fill="white" stroke="#ddd"/>
  <text x="400" y="459" font-family="Arial" font-size="14" fill="#555" text-anchor="middle">🔍</text>
  
  <circle cx="450" cy="455" r="15" fill="white" stroke="#ddd"/>
  <text x="450" y="459" font-family="Arial" font-size="14" fill="#555" text-anchor="middle">📊</text>
  
  <!-- Phone Button -->
  <circle cx="400" cy="445" r="10" fill="#f0f0f0" stroke="#ddd"/>
  
  <!-- Annotations -->
  <text x="580" y="100" font-family="Arial" font-size="14" font-weight="bold" fill="#333">Aplicación Móvil</text>
  <text x="580" y="120" font-family="Arial" font-size="12" fill="#555">Acceso desde cualquier lugar</text>
  <line x1="530" y1="95" x2="570" y2="110" stroke="#333" stroke-width="1"/>
  
  <text x="150" y="200" font-family="Arial" font-size="14" font-weight="bold" fill="#333">Resumen de Inventario</text>
  <text x="150" y="220" font-family="Arial" font-size="12" fill="#555">Visualiza estadísticas clave</text>
  <line x1="270" y1="210" x2="240" y2="210" stroke="#333" stroke-width="1"/>
  
  <text x="150" y="310" font-family="Arial" font-size="14" font-weight="bold" fill="#333">Actividad en Tiempo Real</text>
  <text x="150" y="330" font-family="Arial" font-size="12" fill="#555">Seguimiento de cambios</text>
  <line x1="280" y1="310" x2="240" y2="320" stroke="#333" stroke-width="1"/>
  
  <text x="580" y="360" font-family="Arial" font-size="14" font-weight="bold" fill="#333">Alertas de Stock</text>
  <text x="580" y="380" font-family="Arial" font-size="12" fill="#555">Notificaciones inmediatas</text>
  <line x1="520" y1="360" x2="570" y2="370" stroke="#333" stroke-width="1"/>
  
  <text x="580" y="455" font-family="Arial" font-size="14" font-weight="bold" fill="#333">Navegación Intuitiva</text>
  <text x="580" y="475" font-family="Arial" font-size="12" fill="#555">Acceso rápido a funciones</text>
  <line x1="470" y1="455" x2="570" y2="465" stroke="#333" stroke-width="1"/>
</svg>