<svg xmlns="http://www.w3.org/2000/svg" viewBox="0 0 800 500" width="800" height="500">
  <!-- Informes y Análisis -->
  <rect width="800" height="500" fill="#f5f5f5"/>
  
  <!-- Header -->
  <rect width="800" height="60" fill="#3a75c4"/>
  <text x="20" y="38" font-family="Arial" font-size="20" fill="white">Java Inventory Manager - Informes y Análisis</text>
  
  <!-- Sidebar -->
  <rect x="0" y="60" width="200" height="440" fill="#2c3e50"/>
  
  <!-- Sidebar Menu Items -->
  <rect x="0" y="100" width="200" height="40" fill="#2c3e50"/>
  <text x="20" y="125" font-family="Arial" font-size="14" fill="white">Dashboard</text>
  
  <rect x="0" y="140" width="200" height="40" fill="#2c3e50"/>
  <text x="20" y="165" font-family="Arial" font-size="14" fill="white">Productos</text>
  
  <rect x="0" y="180" width="200" height="40" fill="#2c3e50"/>
  <text x="20" y="205" font-family="Arial" font-size="14" fill="white">Proveedores</text>
  
  <rect x="0" y="220" width="200" height="40" fill="#2c3e50"/>
  <text x="20" y="245" font-family="Arial" font-size="14" fill="white">Ventas</text>
  
  <rect x="0" y="260" width="200" height="40" fill="#34495e"/>
  <text x="20" y="285" font-family="Arial" font-size="14" fill="white">Informes</text>
  
  <rect x="0" y="300" width="200" height="40" fill="#2c3e50"/>
  <text x="20" y="325" font-family="Arial" font-size="14" fill="white">Configuración</text>
  
  <!-- Main Content -->
  <!-- Report Controls -->
  <rect x="220" y="80" width="560" height="50" rx="5" fill="white" stroke="#ddd"/>
  
  <rect x="240" y="95" width="120" height="30" rx="3" fill="#f9f9f9" stroke="#ddd"/>
  <text x="250" y="115" font-family="Arial" font-size="12" fill="#555">Tipo: Ventas</text>
  
  <rect x="370" y="95" width="120" height="30" rx="3" fill="#f9f9f9" stroke="#ddd"/>
  <text x="380" y="115" font-family="Arial" font-size="12" fill="#555">Periodo: Mensual</text>
  
  <rect x="500" y="95" width="120" height="30" rx="3" fill="#f9f9f9" stroke="#ddd"/>
  <text x="510" y="115" font-family="Arial" font-size="12" fill="#555">Año: 2023</text>
  
  <rect x="630" y="95" width="120" height="30" rx="3" fill="#3a75c4" stroke="none"/>
  <text x="655" y="115" font-family="Arial" font-size="12" fill="white">Generar Informe</text>
  
  <!-- Line Chart -->
  <rect x="220" y="150" width="560" height="200" rx="5" fill="white" stroke="#ddd"/>
  <text x="240" y="175" font-family="Arial" font-size="16" font-weight="bold" fill="#333">Ventas Mensuales 2023</text>
  
  <!-- Chart Grid -->
  <line x1="240" y1="320" x2="760" y2="320" stroke="#ddd" stroke-width="1"/>
  <line x1="240" y1="280" x2="760" y2="280" stroke="#ddd" stroke-width="1"/>
  <line x1="240" y1="240" x2="760" y2="240" stroke="#ddd" stroke-width="1"/>
  <line x1="240" y1="200" x2="760" y2="200" stroke="#ddd" stroke-width="1"/>
  
  <!-- Y-axis Labels -->
  <text x="220" y="320" font-family="Arial" font-size="10" fill="#555">0€</text>
  <text x="220" y="280" font-family="Arial" font-size="10" fill="#555">10K€</text>
  <text x="220" y="240" font-family="Arial" font-size="10" fill="#555">20K€</text>
  <text x="220" y="200" font-family="Arial" font-size="10" fill="#555">30K€</text>
  
  <!-- X-axis Labels -->
  <text x="240" y="335" font-family="Arial" font-size="10" fill="#555">Ene</text>
  <text x="280" y="335" font-family="Arial" font-size="10" fill="#555">Feb</text>
  <text x="320" y="335" font-family="Arial" font-size="10" fill="#555">Mar</text>
  <text x="360" y="335" font-family="Arial" font-size="10" fill="#555">Abr</text>
  <text x="400" y="335" font-family="Arial" font-size="10" fill="#555">May</text>
  <text x="440" y="335" font-family="Arial" font-size="10" fill="#555">Jun</text>
  <text x="480" y="335" font-family="Arial" font-size="10" fill="#555">Jul</text>
  <text x="520" y="335" font-family="Arial" font-size="10" fill="#555">Ago</text>
  <text x="560" y="335" font-family="Arial" font-size="10" fill="#555">Sep</text>
  <text x="600" y="335" font-family="Arial" font-size="10" fill="#555">Oct</text>
  <text x="640" y="335" font-family="Arial" font-size="10" fill="#555">Nov</text>
  <text x="680" y="335" font-family="Arial" font-size="10" fill="#555">Dic</text>
  
  <!-- Line Chart Data -->
  <polyline points="240,290 280,280 320,260 360,270 400,250 440,230 480,240 520,220 560,210 600,190 640,200 680,180" 
           fill="none" stroke="#3498db" stroke-width="3"/>
  
  <!-- Data Points -->
  <circle cx="240" cy="290" r="4" fill="#3498db"/>
  <circle cx="280" cy="280" r="4" fill="#3498db"/>
  <circle cx="320" cy="260" r="4" fill="#3498db"/>
  <circle cx="360" cy="270" r="4" fill="#3498db"/>
  <circle cx="400" cy="250" r="4" fill="#3498db"/>
  <circle cx="440" cy="230" r="4" fill="#3498db"/>
  <circle cx="480" cy="240" r="4" fill="#3498db"/>
  <circle cx="520" cy="220" r="4" fill="#3498db"/>
  <circle cx="560" cy="210" r="4" fill="#3498db"/>
  <circle cx="600" cy="190" r="4" fill="#3498db"/>
  <circle cx="640" cy="200" r="4" fill="#3498db"/>
  <circle cx="680" cy="180" r="4" fill="#3498db"/>
  
  <!-- Pie Chart -->
  <rect x="220" y="370" width="270" height="110" rx="5" fill="white" stroke="#ddd"/>
  <text x="240" y="390" font-family="Arial" font-size="14" font-weight="bold" fill="#333">Ventas por Categoría</text>
  
  <!-- Pie Chart -->
  <circle cx="290" cy="430" r="30" fill="transparent" stroke="#ddd"/>
  
  <!-- Pie Segments -->
  <path d="M 290 430 L 290 400 A 30 30 0 0 1 316 445 Z" fill="#3498db"/>
  <path d="M 290 430 L 316 445 A 30 30 0 0 1 275 458 Z" fill="#e74c3c"/>
  <path d="M 290 430 L 275 458 A 30 30 0 0 1 264 415 Z" fill="#2ecc71"/>
  <path d="M 290 430 L 264 415 A 30 30 0 0 1 290 400 Z" fill="#f1c40f"/>
  
  <!-- Legend -->
  <rect x="340" y="410" width="10" height="10" fill="#3498db"/>
  <text x="355" y="420" font-family="Arial" font-size="12" fill="#555">Electrónica (35%)</text>
  
  <rect x="340" y="430" width="10" height="10" fill="#e74c3c"/>
  <text x="355" y="440" font-family="Arial" font-size="12" fill="#555">Ropa (25%)</text>
  
  <rect x="340" y="450" width="10" height="10" fill="#2ecc71"/>
  <text x="355" y="460" font-family="Arial" font-size="12" fill="#555">Hogar (20%)</text>
  
  <rect x="340" y="470" width="10" height="10" fill="#f1c40f"/>
  <text x="355" y="480" font-family="Arial" font-size="12" fill="#555">Otros (20%)</text>
  
  <!-- Export Options -->
  <rect x="510" y="370" width="270" height="110" rx="5" fill="white" stroke="#ddd"/>
  <text x="530" y="390" font-family="Arial" font-size="14" font-weight="bold" fill="#333">Exportar Informe</text>
  
  <rect x="530" y="410" width="100" height="30" rx="3" fill="#f0f0f0" stroke="#ddd"/>
  <text x="550" y="430" font-family="Arial" font-size="12" fill="#555">PDF</text>
  
  <rect x="640" y="410" width="100" height="30" rx="3" fill="#f0f0f0" stroke="#ddd"/>
  <text x="660" y="430" font-family="Arial" font-size="12" fill="#555">Excel</text>
  
  <rect x="530" y="450" width="100" height="30" rx="3" fill="#f0f0f0" stroke="#ddd"/>
  <text x="550" y="470" font-family="Arial" font-size="12" fill="#555">CSV</text>
  
  <rect x="640" y="450" width="100" height="30" rx="3" fill="#f0f0f0" stroke="#ddd"/>
  <text x="660" y="470" font-family="Arial" font-size="12" fill="#555">Imprimir</text>
</svg>