<svg xmlns="http://www.w3.org/2000/svg" viewBox="0 0 32 32" width="32" height="32">
  <!-- Definición de gradientes -->
  <defs>
    <linearGradient id="gradient-primary" x1="0%" y1="0%" x2="100%" y2="100%">
      <stop offset="0%" stop-color="#4A6FFF" />
      <stop offset="100%" stop-color="#2E4BDB" />
    </linearGradient>
    <linearGradient id="gradient-secondary" x1="0%" y1="0%" x2="100%" y2="100%">
      <stop offset="0%" stop-color="#FF6B6B" />
      <stop offset="100%" stop-color="#CC4B4B" />
    </linearGradient>
    <linearGradient id="gradient-accent" x1="0%" y1="0%" x2="100%" y2="100%">
      <stop offset="0%" stop-color="#38D39F" />
      <stop offset="100%" stop-color="#219670" />
    </linearGradient>
  </defs>
  
  <!-- Fondo circular -->
  <circle cx="16" cy="16" r="16" fill="#F8FAFC" />
  
  <!-- Gráfico de barras -->
  <rect x="6" y="18" width="3" height="8" rx="1" fill="url(#gradient-primary)" />
  <rect x="11" y="14" width="3" height="12" rx="1" fill="url(#gradient-primary)" />
  <rect x="16" y="10" width="3" height="16" rx="1" fill="url(#gradient-primary)" />
  <rect x="21" y="16" width="3" height="10" rx="1" fill="url(#gradient-primary)" />
  
  <!-- Línea de tendencia -->
  <path d="M6,18 L11,14 L16,10 L21,16" stroke="url(#gradient-secondary)" stroke-width="1.5" fill="none" stroke-linecap="round" stroke-linejoin="round" />
  <circle cx="6" cy="18" r="1.5" fill="url(#gradient-secondary)" />
  <circle cx="11" cy="14" r="1.5" fill="url(#gradient-secondary)" />
  <circle cx="16" cy="10" r="1.5" fill="url(#gradient-secondary)" />
  <circle cx="21" cy="16" r="1.5" fill="url(#gradient-secondary)" />
  
  <!-- Gráfico circular superpuesto -->
  <path d="M16,16 L16,8 A8,8 0 0,1 24,16 Z" fill="url(#gradient-accent)" opacity="0.6" />
  
  <!-- Borde del ícono -->
  <circle cx="16" cy="16" r="15.5" stroke="#E2E8F0" stroke-width="1" fill="none" />
</svg>