<svg xmlns="http://www.w3.org/2000/svg" width="800" height="600" viewBox="0 0 800 600">
  <!-- Fondo con gradiente suave -->
  <defs>
    <linearGradient id="bg-gradient" x1="0%" y1="0%" x2="100%" y2="100%">
      <stop offset="0%" stop-color="#f8f9fa" stop-opacity="0.1"/>
      <stop offset="100%" stop-color="#f8f9fa" stop-opacity="0.05"/>
    </linearGradient>
    
    <!-- Gradiente para gráficos -->
    <linearGradient id="bar-gradient-1" x1="0%" y1="0%" x2="0%" y2="100%">
      <stop offset="0%" stop-color="#4361ee"/>
      <stop offset="100%" stop-color="#3a56d4"/>
    </linearGradient>
    
    <linearGradient id="bar-gradient-2" x1="0%" y1="0%" x2="0%" y2="100%">
      <stop offset="0%" stop-color="#e74c3c"/>
      <stop offset="100%" stop-color="#c0392b"/>
    </linearGradient>
    
    <linearGradient id="bar-gradient-3" x1="0%" y1="0%" x2="0%" y2="100%">
      <stop offset="0%" stop-color="#2ecc71"/>
      <stop offset="100%" stop-color="#27ae60"/>
    </linearGradient>
    
    <linearGradient id="pie-gradient-1" x1="0%" y1="0%" x2="100%" y2="100%">
      <stop offset="0%" stop-color="#4361ee"/>
      <stop offset="100%" stop-color="#3a56d4"/>
    </linearGradient>
    
    <linearGradient id="pie-gradient-2" x1="0%" y1="0%" x2="100%" y2="100%">
      <stop offset="0%" stop-color="#e74c3c"/>
      <stop offset="100%" stop-color="#c0392b"/>
    </linearGradient>
    
    <linearGradient id="pie-gradient-3" x1="0%" y1="0%" x2="100%" y2="100%">
      <stop offset="0%" stop-color="#2ecc71"/>
      <stop offset="100%" stop-color="#27ae60"/>
    </linearGradient>
    
    <linearGradient id="line-gradient" x1="0%" y1="0%" x2="100%" y2="0%">
      <stop offset="0%" stop-color="#4361ee"/>
      <stop offset="100%" stop-color="#3a56d4"/>
    </linearGradient>
    
    <!-- Filtro para sombras -->
    <filter id="shadow" x="-20%" y="-20%" width="140%" height="140%">
      <feDropShadow dx="2" dy="2" stdDeviation="3" flood-color="#000" flood-opacity="0.3"/>
    </filter>
  </defs>
  
  <!-- Fondo -->
  <rect width="800" height="600" fill="url(#bg-gradient)"/>
  
  <!-- Elementos decorativos de fondo -->
  <g opacity="0.1">
    <circle cx="100" cy="100" r="50" fill="#4361ee"/>
    <circle cx="700" cy="500" r="70" fill="#e74c3c"/>
    <circle cx="200" cy="500" r="40" fill="#2ecc71"/>
    <circle cx="600" cy="150" r="60" fill="#f39c12"/>
  </g>
  
  <!-- Grupo principal de visualización de datos -->
  <g transform="translate(400, 300)" filter="url(#shadow)">
    <!-- Panel de dashboard -->
    <rect x="-300" y="-200" width="600" height="400" rx="10" ry="10" fill="white" stroke="#e6e6e6" stroke-width="2"/>
    
    <!-- Encabezado del panel -->
    <rect x="-300" y="-200" width="600" height="50" rx="10" ry="10" fill="#4361ee"/>
    <text x="-280" y="-165" font-family="Arial" font-size="18" fill="white">Dashboard Analítico</text>
    
    <!-- Iconos de control en el encabezado -->
    <circle cx="250" cy="-175" r="5" fill="#e74c3c"/>
    <circle cx="270" cy="-175" r="5" fill="#f39c12"/>
    <circle cx="290" cy="-175" r="5" fill="#2ecc71"/>
    
    <!-- Gráfico de barras -->
    <g transform="translate(-220, -80)">
      <text x="0" y="-15" font-family="Arial" font-size="14" fill="#333">Ventas por Región</text>
      <!-- Ejes -->
      <line x1="0" y1="0" x2="0" y2="150" stroke="#ccc" stroke-width="2"/>
      <line x1="0" y1="150" x2="200" y2="150" stroke="#ccc" stroke-width="2"/>
      
      <!-- Barras -->
      <rect x="20" y="30" width="30" height="120" rx="3" ry="3" fill="url(#bar-gradient-1)"/>
      <rect x="70" y="60" width="30" height="90" rx="3" ry="3" fill="url(#bar-gradient-2)"/>
      <rect x="120" y="45" width="30" height="105" rx="3" ry="3" fill="url(#bar-gradient-3)"/>
      
      <!-- Etiquetas -->
      <text x="35" y="170" font-family="Arial" font-size="12" fill="#666" text-anchor="middle">Norte</text>
      <text x="85" y="170" font-family="Arial" font-size="12" fill="#666" text-anchor="middle">Sur</text>
      <text x="135" y="170" font-family="Arial" font-size="12" fill="#666" text-anchor="middle">Este</text>
    </g>
    
    <!-- Gráfico circular -->
    <g transform="translate(100, -80)">
      <text x="0" y="-15" font-family="Arial" font-size="14" fill="#333">Distribución de Ventas</text>
      <!-- Sectores del gráfico circular -->
      <path d="M0,0 L0,-60 A60,60 0 0,1 52,30 z" fill="url(#pie-gradient-1)"/>
      <path d="M0,0 L52,30 A60,60 0 0,1 -52,30 z" fill="url(#pie-gradient-2)"/>
      <path d="M0,0 L-52,30 A60,60 0 0,1 0,-60 z" fill="url(#pie-gradient-3)"/>
      
      <!-- Leyenda -->
      <g transform="translate(0, 80)">
        <rect x="-10" y="0" width="10" height="10" fill="url(#pie-gradient-1)"/>
        <text x="10" y="10" font-family="Arial" font-size="12" fill="#666">Producto A (40%)</text>
        
        <rect x="-10" y="20" width="10" height="10" fill="url(#pie-gradient-2)"/>
        <text x="10" y="30" font-family="Arial" font-size="12" fill="#666">Producto B (35%)</text>
        
        <rect x="-10" y="40" width="10" height="10" fill="url(#pie-gradient-3)"/>
        <text x="10" y="50" font-family="Arial" font-size="12" fill="#666">Producto C (25%)</text>
      </g>
    </g>
    
    <!-- Gráfico de líneas -->
    <g transform="translate(-220, 120)">
      <text x="0" y="-15" font-family="Arial" font-size="14" fill="#333">Tendencia Mensual</text>
      <!-- Ejes -->
      <line x1="0" y1="0" x2="0" y2="70" stroke="#ccc" stroke-width="2"/>
      <line x1="0" y1="70" x2="200" y2="70" stroke="#ccc" stroke-width="2"/>
      
      <!-- Línea de tendencia -->
      <polyline points="10,50 40,30 70,40 100,20 130,25 160,10 190,15" fill="none" stroke="url(#line-gradient)" stroke-width="3" stroke-linecap="round" stroke-linejoin="round"/>
      
      <!-- Puntos de datos -->
      <circle cx="10" cy="50" r="4" fill="white" stroke="#4361ee" stroke-width="2"/>
      <circle cx="40" cy="30" r="4" fill="white" stroke="#4361ee" stroke-width="2"/>
      <circle cx="70" cy="40" r="4" fill="white" stroke="#4361ee" stroke-width="2"/>
      <circle cx="100" cy="20" r="4" fill="white" stroke="#4361ee" stroke-width="2"/>
      <circle cx="130" cy="25" r="4" fill="white" stroke="#4361ee" stroke-width="2"/>
      <circle cx="160" cy="10" r="4" fill="white" stroke="#4361ee" stroke-width="2"/>
      <circle cx="190" cy="15" r="4" fill="white" stroke="#4361ee" stroke-width="2"/>
      
      <!-- Etiquetas -->
      <text x="10" y="85" font-family="Arial" font-size="10" fill="#666" text-anchor="middle">Ene</text>
      <text x="40" y="85" font-family="Arial" font-size="10" fill="#666" text-anchor="middle">Feb</text>
      <text x="70" y="85" font-family="Arial" font-size="10" fill="#666" text-anchor="middle">Mar</text>
      <text x="100" y="85" font-family="Arial" font-size="10" fill="#666" text-anchor="middle">Abr</text>
      <text x="130" y="85" font-family="Arial" font-size="10" fill="#666" text-anchor="middle">May</text>
      <text x="160" y="85" font-family="Arial" font-size="10" fill="#666" text-anchor="middle">Jun</text>
      <text x="190" y="85" font-family="Arial" font-size="10" fill="#666" text-anchor="middle">Jul</text>
    </g>
    
    <!-- Tarjetas de KPI -->
    <g transform="translate(100, 120)">
      <!-- KPI 1 -->
      <rect x="-80" y="-15" width="70" height="70" rx="5" ry="5" fill="#f8f9fa" stroke="#e6e6e6" stroke-width="1"/>
      <text x="-45" y="10" font-family="Arial" font-size="12" fill="#666" text-anchor="middle">Ventas</text>
      <text x="-45" y="35" font-family="Arial" font-size="18" font-weight="bold" fill="#4361ee" text-anchor="middle">€24.5K</text>
      
      <!-- KPI 2 -->
      <rect x="0" y="-15" width="70" height="70" rx="5" ry="5" fill="#f8f9fa" stroke="#e6e6e6" stroke-width="1"/>
      <text x="35" y="10" font-family="Arial" font-size="12" fill="#666" text-anchor="middle">Clientes</text>
      <text x="35" y="35" font-family="Arial" font-size="18" font-weight="bold" fill="#e74c3c" text-anchor="middle">1.2K</text>
      
      <!-- KPI 3 -->
      <rect x="80" y="-15" width="70" height="70" rx="5" ry="5" fill="#f8f9fa" stroke="#e6e6e6" stroke-width="1"/>
      <text x="115" y="10" font-family="Arial" font-size="12" fill="#666" text-anchor="middle">Conversión</text>
      <text x="115" y="35" font-family="Arial" font-size="18" font-weight="bold" fill="#2ecc71" text-anchor="middle">8.7%</text>
    </g>
  </g>
  
  <!-- Elementos flotantes decorativos -->
  <g opacity="0.7">
    <!-- Iconos de análisis de datos -->
    <g transform="translate(50, 50)">
      <rect x="0" y="0" width="40" height="40" rx="5" ry="5" fill="#4361ee" opacity="0.2"/>
      <path d="M10,30 L10,20 L20,20 L20,30 Z M20,30 L20,15 L30,15 L30,30 Z" fill="#4361ee"/>
    </g>
    
    <g transform="translate(700, 100)">
      <rect x="0" y="0" width="40" height="40" rx="5" ry="5" fill="#e74c3c" opacity="0.2"/>
      <circle cx="20" cy="20" r="15" fill="none" stroke="#e74c3c" stroke-width="2"/>
      <path d="M15,15 L25,25 M15,25 L25,15" stroke="#e74c3c" stroke-width="2"/>
    </g>
    
    <g transform="translate(650, 500)">
      <rect x="0" y="0" width="40" height="40" rx="5" ry="5" fill="#2ecc71" opacity="0.2"/>
      <path d="M10,20 L18,28 L30,12" fill="none" stroke="#2ecc71" stroke-width="2" stroke-linecap="round" stroke-linejoin="round"/>
    </g>
    
    <g transform="translate(100, 500)">
      <rect x="0" y="0" width="40" height="40" rx="5" ry="5" fill="#f39c12" opacity="0.2"/>
      <circle cx="20" cy="15" r="5" fill="#f39c12"/>
      <path d="M10,30 L30,30" stroke="#f39c12" stroke-width="2"/>
      <path d="M15,25 L25,25" stroke="#f39c12" stroke-width="2"/>
    </g>
  </g>
  
  <!-- Líneas de conexión decorativas -->
  <g opacity="0.1">
    <path d="M100,100 C200,150 300,50 400,100 S500,150 600,100" fill="none" stroke="#4361ee" stroke-width="2"/>
    <path d="M100,500 C200,450 300,550 400,500 S500,450 600,500" fill="none" stroke="#e74c3c" stroke-width="2"/>
    <path d="M100,300 C200,250 300,350 400,300 S500,250 600,300" fill="none" stroke="#2ecc71" stroke-width="2"/>
  </g>
</svg>