<svg xmlns="http://www.w3.org/2000/svg" style="display: none;">
  <!-- Icono de gráfico de barras -->
  <symbol id="icon-bar-chart" viewBox="0 0 24 24">
    <rect x="3" y="12" width="3" height="8" rx="1" fill="currentColor"/>
    <rect x="8" y="8" width="3" height="12" rx="1" fill="currentColor"/>
    <rect x="13" y="5" width="3" height="15" rx="1" fill="currentColor"/>
    <rect x="18" y="10" width="3" height="10" rx="1" fill="currentColor"/>
  </symbol>

  <!-- Icono de gráfico de líneas -->
  <symbol id="icon-line-chart" viewBox="0 0 24 24">
    <path d="M3,16 L7,10 L12,14 L17,6 L21,12" stroke="currentColor" stroke-width="2" fill="none" stroke-linecap="round" stroke-linejoin="round"/>
    <circle cx="3" cy="16" r="1.5" fill="currentColor"/>
    <circle cx="7" cy="10" r="1.5" fill="currentColor"/>
    <circle cx="12" cy="14" r="1.5" fill="currentColor"/>
    <circle cx="17" cy="6" r="1.5" fill="currentColor"/>
    <circle cx="21" cy="12" r="1.5" fill="currentColor"/>
  </symbol>

  <!-- Icono de gráfico circular -->
  <symbol id="icon-pie-chart" viewBox="0 0 24 24">
    <path d="M12,2 L12,12 L21,12 C21,16.9706 16.9706,21 12,21 C7.02944,21 3,16.9706 3,12 C3,7.02944 7.02944,3 12,3 L12,2 Z" stroke="currentColor" stroke-width="2" fill="none"/>
    <path d="M12,2 L12,12 L21,12 C21,16.9706 16.9706,21 12,21" fill="currentColor" fill-opacity="0.3"/>
  </symbol>

  <!-- Icono de gráfico de dispersión -->
  <symbol id="icon-scatter-chart" viewBox="0 0 24 24">
    <circle cx="5" cy="8" r="2" fill="currentColor"/>
    <circle cx="10" cy="14" r="2" fill="currentColor"/>
    <circle cx="15" cy="6" r="2" fill="currentColor"/>
    <circle cx="18" cy="12" r="2" fill="currentColor"/>
    <circle cx="7" cy="16" r="2" fill="currentColor"/>
    <circle cx="12" cy="10" r="2" fill="currentColor"/>
    <circle cx="19" cy="8" r="2" fill="currentColor"/>
  </symbol>

  <!-- Icono de tabla de datos -->
  <symbol id="icon-table" viewBox="0 0 24 24">
    <rect x="3" y="3" width="18" height="18" rx="2" stroke="currentColor" stroke-width="2" fill="none"/>
    <line x1="3" y1="9" x2="21" y2="9" stroke="currentColor" stroke-width="2"/>
    <line x1="3" y1="15" x2="21" y2="15" stroke="currentColor" stroke-width="2"/>
    <line x1="9" y1="3" x2="9" y2="21" stroke="currentColor" stroke-width="2"/>
    <line x1="15" y1="3" x2="15" y2="21" stroke="currentColor" stroke-width="2"/>
  </symbol>

  <!-- Icono de análisis -->
  <symbol id="icon-analysis" viewBox="0 0 24 24">
    <path d="M20,20 L4,20 C3.44772,20 3,19.5523 3,19 L3,5 C3,4.44772 3.44772,4 4,4 L20,4 C20.5523,4 21,4.44772 21,5 L21,19 C21,19.5523 20.5523,20 20,20 Z" stroke="currentColor" stroke-width="2" fill="none"/>
    <path d="M7,16 L7,12" stroke="currentColor" stroke-width="2" stroke-linecap="round"/>
    <path d="M12,16 L12,8" stroke="currentColor" stroke-width="2" stroke-linecap="round"/>
    <path d="M17,16 L17,10" stroke="currentColor" stroke-width="2" stroke-linecap="round"/>
  </symbol>

  <!-- Icono de exportación -->
  <symbol id="icon-export" viewBox="0 0 24 24">
    <path d="M12,3 L12,16" stroke="currentColor" stroke-width="2" stroke-linecap="round"/>
    <path d="M7,8 L12,3 L17,8" stroke="currentColor" stroke-width="2" stroke-linecap="round" stroke-linejoin="round"/>
    <path d="M20,15 L20,19 C20,19.5523 19.5523,20 19,20 L5,20 C4.44772,20 4,19.5523 4,19 L4,15" stroke="currentColor" stroke-width="2" stroke-linecap="round"/>
  </symbol>

  <!-- Icono de importación -->
  <symbol id="icon-import" viewBox="0 0 24 24">
    <path d="M12,16 L12,3" stroke="currentColor" stroke-width="2" stroke-linecap="round"/>
    <path d="M7,11 L12,16 L17,11" stroke="currentColor" stroke-width="2" stroke-linecap="round" stroke-linejoin="round"/>
    <path d="M20,15 L20,19 C20,19.5523 19.5523,20 19,20 L5,20 C4.44772,20 4,19.5523 4,19 L4,15" stroke="currentColor" stroke-width="2" stroke-linecap="round"/>
  </symbol>

  <!-- Icono de filtro -->
  <symbol id="icon-filter" viewBox="0 0 24 24">
    <path d="M4,4 L20,4 L13,13 L13,19 L11,21 L11,13 L4,4 Z" stroke="currentColor" stroke-width="2" fill="none" stroke-linejoin="round"/>
  </symbol>

  <!-- Icono de estadísticas -->
  <symbol id="icon-stats" viewBox="0 0 24 24">
    <path d="M4,19 L20,19" stroke="currentColor" stroke-width="2" stroke-linecap="round"/>
    <rect x="5" y="10" width="3" height="6" rx="1" fill="currentColor"/>
    <rect x="10.5" y="5" width="3" height="11" rx="1" fill="currentColor"/>
    <rect x="16" y="8" width="3" height="8" rx="1" fill="currentColor"/>
  </symbol>

  <!-- Icono de correlación -->
  <symbol id="icon-correlation" viewBox="0 0 24 24">
    <circle cx="6" cy="6" r="2" fill="currentColor"/>
    <circle cx="14" cy="8" r="2" fill="currentColor"/>
    <circle cx="18" cy="14" r="2" fill="currentColor"/>
    <circle cx="10" cy="16" r="2" fill="currentColor"/>
    <line x1="7.5" y1="7.5" x2="12.5" y2="6.5" stroke="currentColor" stroke-width="1.5"/>
    <line x1="15.5" y1="9.5" x2="16.5" y2="12.5" stroke="currentColor" stroke-width="1.5"/>
    <line x1="16.5" y1="15.5" x2="11.5" y2="15.5" stroke="currentColor" stroke-width="1.5"/>
    <line x1="8.5" y1="14.5" x2="7.5" y2="7.5" stroke="currentColor" stroke-width="1.5"/>
  </symbol>

  <!-- Icono de distribución -->
  <symbol id="icon-distribution" viewBox="0 0 24 24">
    <path d="M3,18 L21,18" stroke="currentColor" stroke-width="2" stroke-linecap="round"/>
    <path d="M5,18 C5,12 7,6 12,6 C17,6 19,12 19,18" stroke="currentColor" stroke-width="2" fill="none"/>
    <circle cx="12" cy="6" r="2" fill="currentColor"/>
  </symbol>

  <!-- Icono de series temporales -->
  <symbol id="icon-time-series" viewBox="0 0 24 24">
    <path d="M3,12 L7,8 L11,14 L15,6 L19,10" stroke="currentColor" stroke-width="2" fill="none" stroke-linecap="round" stroke-linejoin="round"/>
    <circle cx="3" cy="12" r="1" fill="currentColor"/>
    <circle cx="7" cy="8" r="1" fill="currentColor"/>
    <circle cx="11" cy="14" r="1" fill="currentColor"/>
    <circle cx="15" cy="6" r="1" fill="currentColor"/>
    <circle cx="19" cy="10" r="1" fill="currentColor"/>
    <path d="M3,20 L21,20" stroke="currentColor" stroke-width="2" stroke-linecap="round"/>
    <path d="M5,20 L5,17" stroke="currentColor" stroke-width="1.5" stroke-linecap="round"/>
    <path d="M9,20 L9,17" stroke="currentColor" stroke-width="1.5" stroke-linecap="round"/>
    <path d="M13,20 L13,17" stroke="currentColor" stroke-width="1.5" stroke-linecap="round"/>
    <path d="M17,20 L17,17" stroke="currentColor" stroke-width="1.5" stroke-linecap="round"/>
  </symbol>

  <!-- Icono de CSV -->
  <symbol id="icon-csv" viewBox="0 0 24 24">
    <path d="M14,3 L20,9 L20,19 C20,19.5523 19.5523,20 19,20 L5,20 C4.44772,20 4,19.5523 4,19 L4,4 C4,3.44772 4.44772,3 5,3 L14,3 Z" stroke="currentColor" stroke-width="2" fill="none"/>
    <path d="M14,3 L14,9 L20,9" stroke="currentColor" stroke-width="2" fill="none"/>
    <text x="8" y="16" font-family="monospace" font-size="6" font-weight="bold" fill="currentColor">CSV</text>
  </symbol>

  <!-- Icono de Excel -->
  <symbol id="icon-excel" viewBox="0 0 24 24">
    <path d="M14,3 L20,9 L20,19 C20,19.5523 19.5523,20 19,20 L5,20 C4.44772,20 4,19.5523 4,19 L4,4 C4,3.44772 4.44772,3 5,3 L14,3 Z" stroke="currentColor" stroke-width="2" fill="none"/>
    <path d="M14,3 L14,9 L20,9" stroke="currentColor" stroke-width="2" fill="none"/>
    <text x="8" y="16" font-family="monospace" font-size="6" font-weight="bold" fill="currentColor">XLS</text>
  </symbol>

  <!-- Icono de JSON -->
  <symbol id="icon-json" viewBox="0 0 24 24">
    <path d="M14,3 L20,9 L20,19 C20,19.5523 19.5523,20 19,20 L5,20 C4.44772,20 4,19.5523 4,19 L4,4 C4,3.44772 4.44772,3 5,3 L14,3 Z" stroke="currentColor" stroke-width="2" fill="none"/>
    <path d="M14,3 L14,9 L20,9" stroke="currentColor" stroke-width="2" fill="none"/>
    <text x="6" y="16" font-family="monospace" font-size="5" font-weight="bold" fill="currentColor">JSON</text>
  </symbol>

  <!-- Icono de configuración -->
  <symbol id="icon-settings" viewBox="0 0 24 24">
    <circle cx="12" cy="12" r="3" stroke="currentColor" stroke-width="2" fill="none"/>
    <path d="M19.4,15 L18.5,15 C18.1,15 17.7,15.3 17.6,15.7 L17.4,16.3 C17.3,16.7 17.5,17.1 17.8,17.3 L18.5,17.8 C18.9,18.1 19,18.7 18.7,19.1 L17.3,21.3 C17,21.7 16.4,21.8 16,21.5 L15.3,21 C15,20.7 14.5,20.7 14.2,20.9 L13.6,21.2 C13.2,21.4 13,21.8 13,22.2 L13,23 C13,23.6 12.6,24 12,24 L9,24 C8.4,24 8,23.6 8,23 L8,22.2 C8,21.8 7.8,21.4 7.4,21.2 L6.8,20.9 C6.5,20.7 6,20.7 5.7,21 L5,21.5 C4.6,21.8 4,21.7 3.7,21.3 L2.3,19.1 C2,18.7 2.1,18.1 2.5,17.8 L3.2,17.3 C3.5,17.1 3.7,16.7 3.6,16.3 L3.4,15.7 C3.3,15.3 2.9,15 2.5,15 L1.6,15 C1,15 0.5,14.6 0.5,14 L0.5,11 C0.5,10.4 0.9,10 1.5,10 L2.4,10 C2.8,10 3.2,9.7 3.3,9.3 L3.5,8.7 C3.6,8.3 3.4,7.9 3.1,7.7 L2.4,7.2 C2,6.9 1.9,6.3 2.2,5.9 L3.6,3.7 C3.9,3.3 4.5,3.2 4.9,3.5 L5.6,4 C5.9,4.3 6.4,4.3 6.7,4.1 L7.3,3.8 C7.7,3.6 7.9,3.2 7.9,2.8 L7.9,2 C7.9,1.4 8.3,1 8.9,1 L11.9,1 C12.5,1 12.9,1.4 12.9,2 L12.9,2.8 C12.9,3.2 13.1,3.6 13.5,3.8 L14.1,4.1 C14.4,4.3 14.9,4.3 15.2,4 L15.9,3.5 C16.3,3.2 16.9,3.3 17.2,3.7 L18.6,5.9 C18.9,6.3 18.8,6.9 18.4,7.2 L17.7,7.7 C17.4,7.9 17.2,8.3 17.3,8.7 L17.5,9.3 C17.6,9.7 18,10 18.4,10 L19.3,10 C19.9,10 20.3,10.4 20.3,11 L20.3,14 C20.4,14.6 20,15 19.4,15 Z" stroke="currentColor" stroke-width="2" fill="none"/>
  </symbol>

  <!-- Icono de usuario -->
  <symbol id="icon-user" viewBox="0 0 24 24">
    <circle cx="12" cy="8" r="5" stroke="currentColor" stroke-width="2" fill="none"/>
    <path d="M3,21 C3,17.134 7.03,14 12,14 C16.97,14 21,17.134 21,21" stroke="currentColor" stroke-width="2" fill="none" stroke-linecap="round"/>
  </symbol>

  <!-- Icono de búsqueda -->
  <symbol id="icon-search" viewBox="0 0 24 24">
    <circle cx="11" cy="11" r="7" stroke="currentColor" stroke-width="2" fill="none"/>
    <path d="M16,16 L20,20" stroke="currentColor" stroke-width="2" stroke-linecap="round"/>
  </symbol>

  <!-- Icono de información -->
  <symbol id="icon-info" viewBox="0 0 24 24">
    <circle cx="12" cy="12" r="10" stroke="currentColor" stroke-width="2" fill="none"/>
    <line x1="12" y1="12" x2="12" y2="16" stroke="currentColor" stroke-width="2" stroke-linecap="round"/>
    <circle cx="12" cy="8" r="1" fill="currentColor"/>
  </symbol>

  <!-- Icono de advertencia -->
  <symbol id="icon-warning" viewBox="0 0 24 24">
    <path d="M12,3 L22,20 L2,20 L12,3 Z" stroke="currentColor" stroke-width="2" fill="none" stroke-linejoin="round"/>
    <line x1="12" y1="10" x2="12" y2="14" stroke="currentColor" stroke-width="2" stroke-linecap="round"/>
    <circle cx="12" cy="17" r="1" fill="currentColor"/>
  </symbol>

  <!-- Icono de éxito -->
  <symbol id="icon-success" viewBox="0 0 24 24">
    <circle cx="12" cy="12" r="10" stroke="currentColor" stroke-width="2" fill="none"/>
    <path d="M8,12 L11,15 L16,9" stroke="currentColor" stroke-width="2" fill="none" stroke-linecap="round" stroke-linejoin="round"/>
  </symbol>

  <!-- Icono de error -->
  <symbol id="icon-error" viewBox="0 0 24 24">
    <circle cx="12" cy="12" r="10" stroke="currentColor" stroke-width="2" fill="none"/>
    <line x1="8" y1="8" x2="16" y2="16" stroke="currentColor" stroke-width="2" stroke-linecap="round"/>
    <line x1="16" y1="8" x2="8" y2="16" stroke="currentColor" stroke-width="2" stroke-linecap="round"/>
  </symbol>

  <!-- Icono de tema oscuro -->
  <symbol id="icon-dark-mode" viewBox="0 0 24 24">
    <path d="M12,3 C7.03,3 3,7.03 3,12 C3,16.97 7.03,21 12,21 C16.97,21 21,16.97 21,12 C21,11.54 20.96,11.08 20.9,10.64 C19.92,12.01 18.32,12.9 16.5,12.9 C13.52,12.9 11.1,10.48 11.1,7.5 C11.1,5.69 11.99,4.08 13.36,3.1 C12.92,3.04 12.46,3 12,3 Z" stroke="currentColor" stroke-width="2" fill="none"/>
  </symbol>

  <!-- Icono de tema claro -->
  <symbol id="icon-light-mode" viewBox="0 0 24 24">
    <circle cx="12" cy="12" r="4" stroke="currentColor" stroke-width="2" fill="none"/>
    <line x1="12" y1="4" x2="12" y2="2" stroke="currentColor" stroke-width="2" stroke-linecap="round"/>
    <line x1="12" y1="22" x2="12" y2="20" stroke="currentColor" stroke-width="2" stroke-linecap="round"/>
    <line x1="20" y1="12" x2="22" y2="12" stroke="currentColor" stroke-width="2" stroke-linecap="round"/>
    <line x1="2" y1="12" x2="4" y2="12" stroke="currentColor" stroke-width="2" stroke-linecap="round"/>
    <line x1="17.7" y1="6.3" x2="19.1" y2="4.9" stroke="currentColor" stroke-width="2" stroke-linecap="round"/>
    <line x1="4.9" y1="19.1" x2="6.3" y2="17.7" stroke="currentColor" stroke-width="2" stroke-linecap="round"/>
    <line x1="17.7" y1="17.7" x2="19.1" y2="19.1" stroke="currentColor" stroke-width="2" stroke-linecap="round"/>
    <line x1="4.9" y1="4.9" x2="6.3" y2="6.3" stroke="currentColor" stroke-width="2" stroke-linecap="round"/>
  </symbol>

  <!-- Icono de GitHub -->
  <symbol id="icon-github" viewBox="0 0 24 24">
    <path d="M12,2 C6.48,2 2,6.48 2,12 C2,16.42 4.87,20.17 8.84,21.5 C9.34,21.58 9.5,21.27 9.5,21 C9.5,20.77 9.5,20.14 9.5,19.31 C6.73,19.91 6.14,17.97 6.14,17.97 C5.68,16.81 5.03,16.5 5.03,16.5 C4.12,15.88 5.1,15.9 5.1,15.9 C6.1,15.97 6.63,16.93 6.63,16.93 C7.5,18.45 8.97,18 9.54,17.76 C9.63,17.11 9.89,16.67 10.17,16.42 C7.95,16.17 5.62,15.31 5.62,11.5 C5.62,10.39 6,9.5 6.65,8.79 C6.55,8.54 6.2,7.5 6.75,6.15 C6.75,6.15 7.59,5.88 9.5,7.17 C10.29,6.95 11.15,6.84 12,6.84 C12.85,6.84 13.71,6.95 14.5,7.17 C16.41,5.88 17.25,6.15 17.25,6.15 C17.8,7.5 17.45,8.54 17.35,8.79 C18,9.5 18.38,10.39 18.38,11.5 C18.38,15.32 16.04,16.16 13.81,16.41 C14.17,16.72 14.5,17.33 14.5,18.26 C14.5,19.6 14.5,20.68 14.5,21 C14.5,21.27 14.66,21.59 15.17,21.5 C19.14,20.16 22,16.42 22,12 C22,6.48 17.52,2 12,2 Z" fill="currentColor"/>
  </symbol>

  <!-- Icono de LinkedIn -->
  <symbol id="icon-linkedin" viewBox="0 0 24 24">
    <rect x="2" y="2" width="20" height="20" rx="2" fill="currentColor"/>
    <rect x="4" y="4" width="16" height="16" rx="1" fill="white"/>
    <path d="M8,10 L8,17" stroke="currentColor" stroke-width="2" stroke-linecap="round"/>
    <path d="M12,13 L12,17" stroke="currentColor" stroke-width="2" stroke-linecap="round"/>
    <path d="M16,13 L16,17" stroke="currentColor" stroke-width="2" stroke-linecap="round"/>
    <path d="M12,10 C12,10 12,8 14,8 C16,8 16,10 16,10" stroke="currentColor" stroke-width="2" stroke-linecap="round"/>
    <circle cx="8" cy="7.5" r="1.5" fill="currentColor"/>
  </symbol>

  <!-- Icono de Twitter -->
  <symbol id="icon-twitter" viewBox="0 0 24 24">
    <path d="M22,5.8 C21.2,6.1 20.4,6.3 19.5,6.4 C20.4,5.9 21.1,5 21.4,4 C20.6,4.5 19.7,4.8 18.8,5 C18,4.1 16.9,3.5 15.7,3.5 C13.3,3.5 11.5,5.4 11.5,7.7 C11.5,8 11.5,8.3 11.6,8.6 C8.1,8.4 5,6.7 3,4.1 C2.6,4.7 2.4,5.4 2.4,6.1 C2.4,7.5 3.2,8.7 4.3,9.4 C3.6,9.4 2.9,9.2 2.3,8.9 C2.3,8.9 2.3,8.9 2.3,9 C2.3,11 3.7,12.7 5.5,13 C5.2,13.1 4.8,13.1 4.4,13.1 C4.1,13.1 3.8,13.1 3.6,13 C4.1,14.6 5.6,15.8 7.4,15.8 C6,16.9 4.2,17.5 2.3,17.5 C1.9,17.5 1.6,17.5 1.2,17.4 C3,18.6 5.1,19.2 7.3,19.2 C15.7,19.2 20.3,12.2 20.3,6.2 C20.3,6 20.3,5.8 20.3,5.7 C21.2,5.1 21.9,4.3 22.5,3.4 C21.7,3.7 20.9,3.9 20,4 C21,3.4 21.7,2.5 22,1.5 C21.2,2 20.3,2.4 19.4,2.6 C18.6,1.7 17.5,1.2 16.3,1.2 C14,1.2 12.1,3.1 12.1,5.4 C12.1,5.7 12.1,6 12.2,6.3 C8.7,6.1 5.6,4.4 3.6,1.8 C3.2,2.4 3,3.1 3,3.8 C3,5.2 3.8,6.4 4.9,7.1 C4.2,7.1 3.5,6.9 2.9,6.6 C2.9,6.6 2.9,6.6 2.9,6.7 C2.9,8.7 4.3,10.4 6.1,10.7 C5.8,10.8 5.4,10.8 5,10.8 C4.7,10.8 4.4,10.8 4.2,10.7 C4.7,12.3 6.2,13.5 8,13.5 C6.6,14.6 4.8,15.2 2.9,15.2 C2.5,15.2 2.2,15.2 1.8,15.1 C3.6,16.3 5.7,16.9 7.9,16.9 C16.3,16.9 20.9,9.9 20.9,3.9 C20.9,3.7 20.9,3.5 20.9,3.4 C21.8,2.8 22.5,2 23.1,1.1 C22.3,1.4 21.5,1.6 20.6,1.7 C21.6,1.1 22.3,0.2 22.6,-0.8 L22,5.8 Z" fill="currentColor"/>
  </symbol>
</svg>